<svg width="207" height="40" viewBox="0 0 207 40" fill="none" xmlns="http://www.w3.org/2000/svg">
<line y1="33.5" x2="83" y2="33.5" stroke="#F1DFB1"/>
<line x1="123" y1="33.5" x2="206" y2="33.5" stroke="#F1DFB1"/>
<path d="M19.6 18V22.125C19.2 22.625 18.5583 23.125 17.675 23.625C16.7917 24.125 15.7417 24.5417 14.525 24.875C13.325 25.1917 12.025 25.35 10.625 25.35C8.65833 25.35 6.94167 24.9917 5.475 24.275C4.025 23.5417 2.89167 22.4917 2.075 21.125C1.275 19.7583 0.875 18.1167 0.875 16.2C0.875 14.3167 1.26667 12.7 2.05 11.35C2.85 10 4 8.96667 5.5 8.25C7 7.51667 8.79167 7.15 10.875 7.15C11.7917 7.15 12.725 7.20833 13.675 7.325C14.6417 7.425 15.5333 7.55833 16.35 7.725C17.1833 7.89167 17.8417 8.08333 18.325 8.3L18.075 13.075H17.85C17.5 11.825 17.0167 10.8667 16.4 10.2C15.7833 9.51667 15.1 9.05 14.35 8.8C13.6167 8.53333 12.875 8.4 12.125 8.4C10.7917 8.4 9.7 8.71667 8.85 9.35C8 9.98333 7.375 10.9 6.975 12.1C6.575 13.2833 6.375 14.7333 6.375 16.45C6.375 18.0167 6.54167 19.375 6.875 20.525C7.225 21.675 7.75 22.5583 8.45 23.175C9.16667 23.7917 10.075 24.1 11.175 24.1C11.725 24.1 12.25 24 12.75 23.8C13.25 23.6 13.6583 23.3 13.975 22.9C14.3083 22.5 14.475 22.0083 14.475 21.425L14.5 18C14.5 17.25 14.075 16.875 13.225 16.875H12.825V16.625H21.225V16.875H20.85C19.9833 16.875 19.5667 17.25 19.6 18ZM31.2582 9.7C32.6915 9.7 33.9665 9.875 35.0832 10.225C36.2165 10.575 37.1749 11.0833 37.9582 11.75C38.7582 12.4167 39.3582 13.2333 39.7582 14.2C40.1749 15.1667 40.3832 16.275 40.3832 17.525C40.3832 18.7583 40.1749 19.8583 39.7582 20.825C39.3582 21.775 38.7582 22.5833 37.9582 23.25C37.1749 23.9167 36.2165 24.425 35.0832 24.775C33.9665 25.125 32.6915 25.3 31.2582 25.3C29.8415 25.3 28.5665 25.125 27.4332 24.775C26.3165 24.425 25.3582 23.9167 24.5582 23.25C23.7749 22.5833 23.1749 21.775 22.7582 20.825C22.3582 19.8583 22.1582 18.7583 22.1582 17.525C22.1582 16.275 22.3582 15.1667 22.7582 14.2C23.1749 13.2333 23.7749 12.4167 24.5582 11.75C25.3582 11.0833 26.3165 10.575 27.4332 10.225C28.5665 9.875 29.8415 9.7 31.2582 9.7ZM31.2582 24.175C32.1415 24.175 32.8749 23.9167 33.4582 23.4C34.0582 22.8667 34.5082 22.1083 34.8082 21.125C35.1082 20.125 35.2582 18.925 35.2582 17.525C35.2582 16.1083 35.1082 14.9 34.8082 13.9C34.5082 12.9 34.0582 12.1417 33.4582 11.625C32.8749 11.0917 32.1415 10.825 31.2582 10.825C30.3915 10.825 29.6582 11.0917 29.0582 11.625C28.4749 12.1417 28.0249 12.9 27.7082 13.9C27.4082 14.9 27.2582 16.1083 27.2582 17.525C27.2582 18.925 27.4082 20.125 27.7082 21.125C28.0249 22.1083 28.4749 22.8667 29.0582 23.4C29.6582 23.9167 30.3915 24.175 31.2582 24.175ZM47.7715 10V25H42.8715V10H47.7715ZM53.0215 23.85L54.0465 25H47.7215V23.85H53.0215ZM54.8215 19.75L54.0965 25H49.4465L50.1715 23.85C50.8215 23.85 51.4382 23.6917 52.0215 23.375C52.6215 23.0417 53.1465 22.575 53.5965 21.975C54.0465 21.3583 54.3715 20.6167 54.5715 19.75H54.8215ZM42.9465 23.45L42.9215 25H41.2965V24.75C41.2965 24.75 41.3382 24.75 41.4215 24.75C41.5048 24.75 41.5548 24.75 41.5715 24.75C41.9215 24.75 42.2215 24.625 42.4715 24.375C42.7382 24.125 42.8715 23.8167 42.8715 23.45H42.9465ZM47.7215 11.55V10H49.3715V10.25C49.3548 10.25 49.3048 10.25 49.2215 10.25C49.1382 10.25 49.0965 10.25 49.0965 10.25C48.7298 10.25 48.4215 10.375 48.1715 10.625C47.9215 10.8583 47.7882 11.1667 47.7715 11.55H47.7215ZM42.9465 11.55H42.8715C42.8715 11.1667 42.7382 10.8583 42.4715 10.625C42.2215 10.375 41.9215 10.25 41.5715 10.25C41.5548 10.25 41.5048 10.25 41.4215 10.25C41.3382 10.25 41.2965 10.25 41.2965 10.25V10H42.9465V11.55ZM63.6625 10C65.5458 10 67.1542 10.3 68.4875 10.9C69.8208 11.4833 70.8375 12.3333 71.5375 13.45C72.2542 14.5667 72.6125 15.9167 72.6125 17.5C72.6125 19.0833 72.2542 20.4333 71.5375 21.55C70.8375 22.6667 69.8208 23.525 68.4875 24.125C67.1542 24.7083 65.5458 25 63.6625 25H57.9625L57.9125 23.85C59.2625 23.85 60.3125 23.85 61.0625 23.85C61.8292 23.85 62.3708 23.85 62.6875 23.85C63.0042 23.85 63.1625 23.85 63.1625 23.85C64.4958 23.85 65.5458 23.2917 66.3125 22.175C67.0958 21.0583 67.4875 19.5 67.4875 17.5C67.4875 15.5 67.1042 13.9417 66.3375 12.825C65.5708 11.6917 64.5125 11.125 63.1625 11.125C63.1625 11.125 62.9958 11.125 62.6625 11.125C62.3458 11.125 61.7875 11.125 60.9875 11.125C60.1875 11.125 59.0875 11.125 57.6875 11.125V10H63.6625ZM61.7625 10V25H56.8625V10H61.7625ZM56.9375 23.4V25H55.1625V24.75C55.1625 24.75 55.2042 24.75 55.2875 24.75C55.3875 24.75 55.4458 24.75 55.4625 24.75C55.8458 24.75 56.1708 24.6167 56.4375 24.35C56.7208 24.0833 56.8625 23.7667 56.8625 23.4H56.9375ZM56.9125 11.55H56.8625C56.8458 11.1667 56.6958 10.8583 56.4125 10.625C56.1458 10.375 55.8208 10.25 55.4375 10.25C55.4375 10.25 55.3875 10.25 55.2875 10.25C55.2042 10.25 55.1542 10.25 55.1375 10.25V10H56.9125V11.55ZM79.9736 10V25H75.0736V10H79.9736ZM85.2486 23.85L86.2486 25H79.9236V23.85H85.2486ZM84.6236 17.025V18.2H79.9236V17.025H84.6236ZM85.7236 10V11.15H79.9236V10H85.7236ZM86.9986 19.75L86.2986 25H81.6486L82.3736 23.85C83.0236 23.85 83.6403 23.6917 84.2236 23.375C84.8236 23.0417 85.3486 22.575 85.7986 21.975C86.2486 21.3583 86.5736 20.6167 86.7736 19.75H86.9986ZM84.6236 18.15V20.85H84.3736V20.75C84.3736 20.0167 84.1403 19.4167 83.6736 18.95C83.2236 18.4667 82.632 18.2167 81.8986 18.2V18.15H84.6236ZM84.6236 14.4V17.075H81.8986V17.025C82.632 17.0083 83.2236 16.7583 83.6736 16.275C84.1403 15.7917 84.3736 15.1833 84.3736 14.45V14.4H84.6236ZM85.7236 11.1V14.35H85.4736V14.225C85.4736 13.2583 85.2236 12.5083 84.7236 11.975C84.2236 11.4417 83.4986 11.1667 82.5486 11.15V11.1H85.7236ZM85.7236 9.625V10.225L83.2486 10C83.6986 10 84.1736 9.95833 84.6736 9.875C85.1903 9.775 85.5403 9.69167 85.7236 9.625ZM75.1486 23.45L75.1236 25H73.4986V24.75C73.4986 24.75 73.5403 24.75 73.6236 24.75C73.707 24.75 73.757 24.75 73.7736 24.75C74.1236 24.75 74.4236 24.625 74.6736 24.375C74.9403 24.125 75.0736 23.8167 75.0736 23.45H75.1486ZM75.1486 11.575H75.0736C75.0736 11.1917 74.9403 10.875 74.6736 10.625C74.4236 10.375 74.1236 10.25 73.7736 10.25C73.757 10.25 73.707 10.25 73.6236 10.25C73.5403 10.25 73.4986 10.25 73.4986 10.25V10H75.1236L75.1486 11.575ZM89.3535 9.675L104.554 22.475L104.829 25.3L89.6285 12.55L89.3535 9.675ZM89.5035 23.5V25H87.6535V24.75C87.6535 24.75 87.7202 24.75 87.8535 24.75C87.9868 24.75 88.0535 24.75 88.0535 24.75C88.4368 24.75 88.7618 24.6333 89.0285 24.4C89.2952 24.1667 89.4285 23.8667 89.4285 23.5H89.5035ZM94.3285 23.5C94.3452 23.8667 94.4868 24.1667 94.7535 24.4C95.0202 24.6333 95.3368 24.75 95.7035 24.75C95.7035 24.75 95.7702 24.75 95.9035 24.75C96.0368 24.75 96.1035 24.75 96.1035 24.75V25H94.2785V23.5H94.3285ZM89.3535 9.675L94.3285 14.95V25H89.4285V12.325C89.4285 11.475 89.3785 10.825 89.2785 10.375C89.1785 9.90833 89.1285 9.675 89.1285 9.675H89.3535ZM104.754 10V22.575C104.754 23.175 104.779 23.6833 104.829 24.1C104.879 24.5 104.929 24.8 104.979 25C105.029 25.2 105.054 25.3 105.054 25.3H104.829L99.8535 19.6L99.8285 10H104.754ZM104.704 11.5V10H106.554V10.25C106.554 10.25 106.479 10.25 106.329 10.25C106.195 10.25 106.129 10.25 106.129 10.25C105.762 10.25 105.445 10.3667 105.179 10.6C104.912 10.8333 104.77 11.1333 104.754 11.5H104.704ZM99.8285 11.5C99.8285 11.1333 99.6952 10.8333 99.4285 10.6C99.1785 10.3667 98.8618 10.25 98.4785 10.25C98.4785 10.25 98.4035 10.25 98.2535 10.25C98.1202 10.25 98.0535 10.25 98.0535 10.25V10H99.9035V11.5H99.8285ZM110.886 7.5H116.286C117.536 7.5 118.686 7.625 119.736 7.875C120.786 8.125 121.628 8.56667 122.261 9.2C122.911 9.81667 123.236 10.7 123.236 11.85C123.236 12.65 123.078 13.3167 122.761 13.85C122.444 14.3833 122.036 14.7833 121.536 15.05C121.053 15.3167 120.528 15.4583 119.961 15.475C120.778 15.5083 121.528 15.7083 122.211 16.075C122.911 16.4417 123.469 16.9583 123.886 17.625C124.303 18.275 124.511 19.0667 124.511 20C124.511 21.15 124.169 22.1 123.486 22.85C122.819 23.5833 121.894 24.125 120.711 24.475C119.544 24.825 118.203 25 116.686 25H114.411C114.411 25 114.411 24.8917 114.411 24.675C114.428 24.4583 114.436 24.25 114.436 24.05C114.436 23.8333 114.436 23.725 114.436 23.725H114.961C115.628 23.725 116.236 23.5917 116.786 23.325C117.353 23.0583 117.803 22.625 118.136 22.025C118.469 21.425 118.636 20.625 118.636 19.625C118.636 19.025 118.569 18.4917 118.436 18.025C118.303 17.5417 118.103 17.1333 117.836 16.8C117.586 16.45 117.261 16.1917 116.861 16.025C116.478 15.8417 116.019 15.75 115.486 15.75V15.525C115.886 15.525 116.236 15.45 116.536 15.3C116.836 15.15 117.078 14.9417 117.261 14.675C117.461 14.3917 117.611 14.05 117.711 13.65C117.811 13.2333 117.861 12.7667 117.861 12.25C117.861 11.35 117.728 10.65 117.461 10.15C117.211 9.63333 116.869 9.275 116.436 9.075C116.003 8.85833 115.511 8.75 114.961 8.75H111.136C111.136 8.73333 111.111 8.625 111.061 8.425C111.028 8.225 110.986 8.025 110.936 7.825C110.903 7.60833 110.886 7.5 110.886 7.5ZM114.636 7.5V25H109.511V7.5H114.636ZM109.586 23.175V25H107.586V24.75C107.619 24.75 107.678 24.75 107.761 24.75C107.844 24.75 107.894 24.75 107.911 24.75C108.344 24.75 108.711 24.6 109.011 24.3C109.328 23.9833 109.494 23.6083 109.511 23.175H109.586ZM109.586 9.325H109.511C109.494 8.89167 109.328 8.525 109.011 8.225C108.711 7.90833 108.344 7.75 107.911 7.75C107.894 7.75 107.844 7.75 107.761 7.75C107.678 7.75 107.619 7.75 107.586 7.75V7.5H109.586V9.325ZM132.822 9.1L140.572 24.875H134.897L130.672 15.225L132.822 9.1ZM128.197 23.475C128.014 23.8917 128.039 24.2083 128.272 24.425C128.505 24.6417 128.764 24.75 129.047 24.75H129.222V25H124.072V24.75C124.072 24.75 124.105 24.75 124.172 24.75C124.239 24.75 124.272 24.75 124.272 24.75C124.605 24.75 124.955 24.6583 125.322 24.475C125.689 24.275 125.98 23.9417 126.197 23.475H128.197ZM132.822 9.1L132.797 12.925L127.547 24.925H125.522L131.322 12.425C131.389 12.2583 131.489 12.0333 131.622 11.75C131.755 11.45 131.889 11.1333 132.022 10.8C132.172 10.45 132.305 10.125 132.422 9.825C132.539 9.525 132.605 9.28333 132.622 9.1H132.822ZM134.497 20.7V21.825H128.272V20.7H134.497ZM134.272 23.475H139.872C140.105 23.9417 140.405 24.275 140.772 24.475C141.139 24.6583 141.489 24.75 141.822 24.75C141.822 24.75 141.855 24.75 141.922 24.75C141.989 24.75 142.022 24.75 142.022 24.75V25H133.222V24.75H133.422C133.705 24.75 133.964 24.6417 134.197 24.425C134.43 24.2083 134.455 23.8917 134.272 23.475ZM152.093 14.875L157.093 23.05C157.443 23.6167 157.801 24.05 158.168 24.35C158.551 24.6333 158.951 24.7833 159.368 24.8V25H156.793C156.643 25 156.343 25 155.893 25C155.46 24.9833 154.943 24.9167 154.343 24.8C153.76 24.6667 153.168 24.4417 152.568 24.125C151.968 23.8083 151.451 23.35 151.018 22.75C150.885 22.5667 150.735 22.3333 150.568 22.05C150.401 21.7667 150.226 21.4583 150.043 21.125C149.86 20.7917 149.685 20.4667 149.518 20.15C149.351 19.8167 149.193 19.5083 149.043 19.225C148.91 18.9417 148.801 18.7167 148.718 18.55C148.635 18.3833 148.593 18.2917 148.593 18.275L152.093 14.875ZM156.493 10.15L150.218 18.025L148.593 18.275L154.318 10.15H156.493ZM157.993 9.975V10.2H157.893C157.426 10.2 156.993 10.3 156.593 10.5C156.21 10.6833 155.885 10.9333 155.618 11.25L153.568 11.2C153.751 10.95 153.785 10.725 153.668 10.525C153.568 10.3083 153.376 10.2 153.093 10.2H152.893V9.975H157.893H157.993ZM147.968 9.975V25H143.068V9.975H147.968ZM143.118 23.45V25H141.493V24.75C141.493 24.75 141.526 24.75 141.593 24.75C141.66 24.75 141.71 24.75 141.743 24.75C142.11 24.75 142.418 24.625 142.668 24.375C142.918 24.125 143.051 23.8167 143.068 23.45H143.118ZM147.893 23.45H147.968C147.968 23.8167 148.093 24.125 148.343 24.375C148.61 24.625 148.926 24.75 149.293 24.75C149.326 24.75 149.376 24.75 149.443 24.75C149.51 24.75 149.543 24.75 149.543 24.75V25H147.893V23.45ZM147.893 11.55V9.975H149.543V10.225C149.526 10.225 149.485 10.225 149.418 10.225C149.368 10.225 149.326 10.225 149.293 10.225C148.926 10.225 148.61 10.35 148.343 10.6C148.093 10.85 147.968 11.1667 147.968 11.55H147.893ZM143.118 11.55H143.068C143.051 11.1667 142.918 10.85 142.668 10.6C142.418 10.35 142.11 10.225 141.743 10.225C141.726 10.225 141.685 10.225 141.618 10.225C141.551 10.225 141.501 10.225 141.468 10.225V9.975H143.118V11.55ZM165.545 10V25H160.645V10H165.545ZM170.82 23.85L171.82 25H165.495V23.85H170.82ZM170.195 17.025V18.2H165.495V17.025H170.195ZM171.295 10V11.15H165.495V10H171.295ZM172.57 19.75L171.87 25H167.22L167.945 23.85C168.595 23.85 169.212 23.6917 169.795 23.375C170.395 23.0417 170.92 22.575 171.37 21.975C171.82 21.3583 172.145 20.6167 172.345 19.75H172.57ZM170.195 18.15V20.85H169.945V20.75C169.945 20.0167 169.712 19.4167 169.245 18.95C168.795 18.4667 168.203 18.2167 167.47 18.2V18.15H170.195ZM170.195 14.4V17.075H167.47V17.025C168.203 17.0083 168.795 16.7583 169.245 16.275C169.712 15.7917 169.945 15.1833 169.945 14.45V14.4H170.195ZM171.295 11.1V14.35H171.045V14.225C171.045 13.2583 170.795 12.5083 170.295 11.975C169.795 11.4417 169.07 11.1667 168.12 11.15V11.1H171.295ZM171.295 9.625V10.225L168.82 10C169.27 10 169.745 9.95833 170.245 9.875C170.762 9.775 171.112 9.69167 171.295 9.625ZM160.72 23.45L160.695 25H159.07V24.75C159.07 24.75 159.112 24.75 159.195 24.75C159.278 24.75 159.328 24.75 159.345 24.75C159.695 24.75 159.995 24.625 160.245 24.375C160.512 24.125 160.645 23.8167 160.645 23.45H160.72ZM160.72 11.575H160.645C160.645 11.1917 160.512 10.875 160.245 10.625C159.995 10.375 159.695 10.25 159.345 10.25C159.328 10.25 159.278 10.25 159.195 10.25C159.112 10.25 159.07 10.25 159.07 10.25V10H160.695L160.72 11.575ZM180 10H182.325C182.958 10 183.608 10.0583 184.275 10.175C184.941 10.275 185.558 10.4667 186.125 10.75C186.691 11.0333 187.15 11.45 187.5 12C187.85 12.5333 188.025 13.2417 188.025 14.125C188.025 14.625 187.933 15.1583 187.75 15.725C187.583 16.2917 187.266 16.8 186.8 17.25C186.35 17.6833 185.691 17.975 184.825 18.125C185.458 18.2917 186.016 18.6083 186.5 19.075C186.983 19.5417 187.333 19.9667 187.55 20.35C187.666 20.55 187.791 20.8 187.925 21.1C188.075 21.3833 188.25 21.7 188.45 22.05C188.65 22.4 188.875 22.775 189.125 23.175C189.441 23.6583 189.716 24.0167 189.95 24.25C190.183 24.4667 190.408 24.6083 190.625 24.675C190.841 24.725 191.083 24.75 191.35 24.75V25H188.4C187.516 25 186.75 24.9667 186.1 24.9C185.45 24.8167 184.866 24.6 184.35 24.25C183.85 23.8833 183.358 23.2917 182.875 22.475C182.691 22.1583 182.533 21.8667 182.4 21.6C182.283 21.3167 182.183 21.0417 182.1 20.775C182.016 20.5083 181.941 20.2333 181.875 19.95C181.825 19.6667 181.766 19.375 181.7 19.075C181.583 18.4917 181.433 18.1167 181.25 17.95C181.066 17.7667 180.941 17.6667 180.875 17.65V17.45C180.891 17.45 180.908 17.45 180.925 17.45C180.941 17.45 180.966 17.45 181 17.45C181.266 17.45 181.533 17.3667 181.8 17.2C182.066 17.0333 182.3 16.7583 182.5 16.375C182.7 15.975 182.833 15.425 182.9 14.725C182.9 14.675 182.908 14.5833 182.925 14.45C182.941 14.3167 182.941 14.1417 182.925 13.925C182.891 13.2083 182.766 12.6667 182.55 12.3C182.333 11.9167 182.083 11.65 181.8 11.5C181.533 11.35 181.291 11.2667 181.075 11.25C180.858 11.2167 180.733 11.2 180.7 11.2C180.666 11.2 180.625 11.2 180.575 11.2C180.541 11.2 180.408 11.2 180.175 11.2C180.158 11.2 180.133 11.1 180.1 10.9C180.083 10.7 180.058 10.5 180.025 10.3C180.008 10.1 180 10 180 10ZM180.2 10V25H175.275V10H180.2ZM175.35 23.45L175.325 25H173.725V24.75C173.758 24.75 173.791 24.75 173.825 24.75C173.875 24.75 173.933 24.75 174 24.75C174.333 24.75 174.625 24.625 174.875 24.375C175.141 24.125 175.275 23.8167 175.275 23.45H175.35ZM175.35 11.55H175.275C175.275 11.1667 175.15 10.8583 174.9 10.625C174.65 10.375 174.358 10.25 174.025 10.25C173.958 10.25 173.9 10.25 173.85 10.25C173.8 10.25 173.758 10.25 173.725 10.25V10H175.325L175.35 11.55ZM180.15 23.45H180.2C180.2 23.8833 180.35 24.2083 180.65 24.425C180.95 24.6417 181.241 24.75 181.525 24.75C181.525 24.75 181.55 24.75 181.6 24.75C181.65 24.75 181.7 24.75 181.75 24.75V25H180.175L180.15 23.45ZM195.03 10.025L199.805 18.1L194.98 18.15L189.68 10.025H195.03ZM199.805 17.975V25H194.905V18.05L199.805 17.975ZM202.93 10.025H204.93L199.505 18.475L198.155 18.275L202.93 10.025ZM202.055 11.525C202.238 11.225 202.23 10.9417 202.03 10.675C201.847 10.3917 201.605 10.25 201.305 10.25C201.305 10.25 201.255 10.25 201.155 10.25C201.072 10.25 201.03 10.25 201.03 10.25V10H206.48V10.25H206.155C205.705 10.25 205.288 10.3667 204.905 10.6C204.538 10.8333 204.238 11.1167 204.005 11.45L202.055 11.525ZM195.93 11.525L190.63 11.45C190.413 11.1167 190.113 10.8333 189.73 10.6C189.347 10.3667 188.93 10.25 188.48 10.25H188.18V10H196.93V10.25C196.93 10.25 196.888 10.25 196.805 10.25C196.722 10.25 196.68 10.25 196.68 10.25C196.363 10.25 196.113 10.3917 195.93 10.675C195.763 10.9417 195.763 11.225 195.93 11.525ZM194.98 23.45V25H193.255V24.75C193.255 24.75 193.297 24.75 193.38 24.75C193.48 24.75 193.538 24.75 193.555 24.75C193.922 24.75 194.238 24.625 194.505 24.375C194.772 24.125 194.905 23.8167 194.905 23.45H194.98ZM199.755 23.45H199.805C199.822 23.8167 199.963 24.125 200.23 24.375C200.497 24.625 200.813 24.75 201.18 24.75C201.18 24.75 201.222 24.75 201.305 24.75C201.405 24.75 201.455 24.75 201.455 24.75V25H199.755V23.45Z" fill="#F1DFB1"/>
<path fill-rule="evenodd" clip-rule="evenodd" d="M111.91 39.7914L109.684 38.0997C109.684 38.0997 110.075 37.3548 110.858 35.8525C110.962 35.6814 111.106 35.5403 111.277 35.4425C111.448 35.3447 111.641 35.2934 111.836 35.2934C112.032 35.2934 112.224 35.3447 112.395 35.4425C112.566 35.5403 112.711 35.6814 112.815 35.8525L113.805 37.4432C114.038 37.8219 114.062 38.3017 113.879 38.7056L113.61 39.299C113.541 39.4576 113.439 39.5987 113.311 39.7122C113.184 39.8257 113.033 39.9089 112.871 39.9559C112.709 40.0028 112.539 40.0125 112.373 39.984C112.206 39.9556 112.048 39.8898 111.91 39.7914ZM94.1027 39.7914C93.9642 39.8889 93.8069 39.9542 93.6416 39.9828C93.4763 40.0114 93.307 40.0026 93.1453 39.957C92.9836 39.9114 92.8335 39.83 92.7052 39.7186C92.577 39.6072 92.4738 39.4683 92.4027 39.3116L92.1214 38.7183C91.938 38.3143 91.9624 37.8345 92.1948 37.4558L93.1854 35.8651C93.2893 35.694 93.4335 35.5529 93.6047 35.4551C93.7758 35.3573 93.9682 35.306 94.1638 35.306C94.3594 35.306 94.5518 35.3573 94.723 35.4551C94.8941 35.5529 95.0384 35.694 95.1422 35.8651C95.9372 37.3548 96.3285 38.0997 96.3285 38.0997L94.1027 39.7914ZM107.115 30.992C107.225 30.1336 108.008 29.6538 108.669 30.0452L110.613 31.1814C111.176 31.5096 111.384 32.3302 111.053 32.9615L108.51 38.0997H106.308L107.115 30.992ZM98.8846 30.992L99.704 38.0997H97.5026L94.9465 32.9488C94.6163 32.3176 94.8242 31.497 95.3868 31.1688L97.3314 30.0326C97.9796 29.6538 98.7745 30.1336 98.8846 30.992ZM105.208 38.0997H100.805L99.8997 29.414C99.8141 28.6691 100.328 28 100.976 28H105.012C105.66 28 106.161 28.6691 106.088 29.414L105.208 38.0997Z" fill="#F1DFB1"/>
</svg>
