<svg width="45" height="34" viewBox="0 0 45 34" fill="none" xmlns="http://www.w3.org/2000/svg">
<path d="M3.17734 30.84C4.53734 32.2 6.25734 32.96 8.33734 33.12C10.3373 33.2 12.2973 32.76 14.2173 31.8C16.0573 30.76 17.4573 29.2 18.4173 27.12C19.8573 23.76 20.3773 20.44 19.9773 17.16C19.5773 13.8 18.4973 10.8 16.7373 8.15999C14.8973 5.51999 12.6173 3.51999 9.89734 2.15999C7.09734 0.719991 4.09734 0.19999 0.897342 0.59999L0.537343 2.15999C2.45734 2.87999 3.97734 4.03999 5.09734 5.63999C6.13734 7.23999 6.57734 9.03999 6.41734 11.04C6.25734 12.96 5.29734 14.92 3.53734 16.92C2.41734 18.2 1.61734 19.72 1.13734 21.48C0.65734 23.16 0.577339 24.84 0.89734 26.52C1.13734 28.2 1.89734 29.64 3.17734 30.84ZM27.2973 30.84C28.6573 32.2 30.3773 32.96 32.4573 33.12C34.4573 33.2 36.4173 32.76 38.3373 31.8C40.1773 30.76 41.5773 29.2 42.5373 27.12C43.9773 23.76 44.4973 20.44 44.0973 17.16C43.6973 13.8 42.6173 10.8 40.8573 8.16C39.0173 5.52 36.7373 3.52 34.0173 2.15999C31.2173 0.719993 28.2173 0.199992 25.0173 0.599992L24.6573 2.15999C26.5773 2.87999 28.0973 4.03999 29.2173 5.63999C30.2573 7.23999 30.6973 9.04 30.5373 11.04C30.3773 12.96 29.4173 14.92 27.6573 16.92C26.5373 18.2 25.7373 19.72 25.2573 21.48C24.7773 23.16 24.6973 24.84 25.0173 26.52C25.2573 28.2 26.0173 29.64 27.2973 30.84Z" fill="#EDEDED" fill-opacity="0.33"/>
<path d="M3.17734 30.84L3.86128 30.1105L3.87304 30.1215L3.88445 30.1329L3.17734 30.84ZM8.33734 33.12L8.29737 34.1192L8.27899 34.1185L8.26064 34.117L8.33734 33.12ZM14.2173 31.8L14.7094 32.6706L14.6873 32.6831L14.6646 32.6944L14.2173 31.8ZM18.4173 27.12L19.3365 27.5139L19.3311 27.5266L19.3253 27.5391L18.4173 27.12ZM19.9773 17.16L18.9847 17.281L18.9844 17.2782L19.9773 17.16ZM16.7373 8.15999L17.5577 7.5882L17.5637 7.59669L17.5694 7.60529L16.7373 8.15999ZM9.89734 2.15999L9.4501 3.05448L9.44 3.04928L9.89734 2.15999ZM0.897342 0.59999L-0.0770494 0.375131L0.080049 -0.305631L0.773307 -0.392288L0.897342 0.59999ZM0.537343 2.15999L0.186219 3.09632L-0.634031 2.78873L-0.437048 1.93513L0.537343 2.15999ZM5.09734 5.63999L5.91657 5.06653L5.92642 5.0806L5.93579 5.095L5.09734 5.63999ZM6.41734 11.04L7.41416 11.1197L7.41389 11.123L6.41734 11.04ZM3.53734 16.92L2.78476 16.2615L2.78663 16.2594L3.53734 16.92ZM1.13734 21.48L2.10217 21.7431L2.09886 21.7547L1.13734 21.48ZM0.89734 26.52L1.87968 26.3329L1.88401 26.3556L1.88729 26.3786L0.89734 26.52ZM27.2973 30.84L27.9813 30.1105L27.993 30.1215L28.0044 30.1329L27.2973 30.84ZM32.4573 33.12L32.4174 34.1192L32.399 34.1185L32.3806 34.1171L32.4573 33.12ZM38.3373 31.8L38.8294 32.6706L38.8073 32.6831L38.7846 32.6944L38.3373 31.8ZM42.5373 27.12L43.4565 27.5139L43.4511 27.5266L43.4453 27.5391L42.5373 27.12ZM44.0973 17.16L43.1047 17.281L43.1044 17.2782L44.0973 17.16ZM40.8573 8.16L41.6777 7.5882L41.6837 7.59669L41.6894 7.6053L40.8573 8.16ZM34.0173 2.15999L33.5701 3.05448L33.56 3.04928L34.0173 2.15999ZM25.0173 0.599992L24.043 0.375133L24.2 -0.305629L24.8933 -0.392286L25.0173 0.599992ZM24.6573 2.15999L24.3062 3.09632L23.486 2.78873L23.683 1.93513L24.6573 2.15999ZM29.2173 5.63999L30.0366 5.06653L30.0464 5.0806L30.0558 5.095L29.2173 5.63999ZM30.5373 11.04L31.5342 11.1197L31.5339 11.123L30.5373 11.04ZM27.6573 16.92L26.9048 16.2615L26.9066 16.2594L27.6573 16.92ZM25.2573 21.48L26.2222 21.7431L26.2189 21.7547L25.2573 21.48ZM25.0173 26.52L25.9997 26.3329L26.004 26.3556L26.0073 26.3786L25.0173 26.52ZM3.88445 30.1329C5.06086 31.3093 6.55032 31.9796 8.41404 32.1229L8.26064 34.117C5.96436 33.9404 4.01382 33.0907 2.47023 31.5471L3.88445 30.1329ZM8.37731 32.1208C10.1965 32.1936 11.9898 31.7957 13.7701 30.9056L14.6646 32.6944C12.6049 33.7243 10.4782 34.2064 8.29737 34.1192L8.37731 32.1208ZM13.7253 30.9294C15.3672 30.0014 16.6295 28.6074 17.5094 26.7009L19.3253 27.5391C18.2852 29.7926 16.7475 31.5186 14.7094 32.6706L13.7253 30.9294ZM17.4982 26.7261C18.8763 23.5106 19.3611 20.3677 18.9847 17.281L20.97 17.0389C21.3936 20.5122 20.8384 24.0094 19.3365 27.5139L17.4982 26.7261ZM18.9844 17.2782C18.6017 14.0637 17.5723 11.2152 15.9053 8.71469L17.5694 7.60529C19.4224 10.3847 20.553 13.5363 20.9703 17.0418L18.9844 17.2782ZM15.9169 8.73179C14.1667 6.22057 12.012 4.33536 9.45013 3.05442L10.3446 1.26556C13.2227 2.70462 15.628 4.81941 17.5577 7.5882L15.9169 8.73179ZM9.44 3.04928C6.82357 1.70369 4.02679 1.21659 1.02138 1.59227L0.773307 -0.392288C4.1679 -0.816611 7.37111 -0.263707 10.3547 1.2707L9.44 3.04928ZM1.87173 0.824848L1.51173 2.38485L-0.437048 1.93513L-0.0770494 0.375131L1.87173 0.824848ZM0.888467 1.22366C2.98757 2.01083 4.67479 3.29255 5.91657 5.06653L4.27811 6.21345C3.2799 4.78743 1.92711 3.74915 0.186219 3.09632L0.888467 1.22366ZM5.93579 5.095C7.10254 6.89001 7.59079 8.91185 7.41416 11.1197L5.42053 10.9602C5.5639 9.16814 5.17214 7.58997 4.2589 6.18498L5.93579 5.095ZM7.41389 11.123C7.23037 13.3252 6.13672 15.4799 4.28806 17.5806L2.78663 16.2594C4.45796 14.3601 5.28431 12.5948 5.4208 10.9569L7.41389 11.123ZM4.28992 17.5785C3.27682 18.7363 2.54519 20.1184 2.1021 21.7431L0.172577 21.2169C0.689486 19.3215 1.55786 17.6637 2.78477 16.2615L4.28992 17.5785ZM2.09886 21.7547C1.66082 23.2879 1.58956 24.8097 1.87968 26.3329L-0.0849988 26.7071C-0.434878 24.8702 -0.346137 23.0321 0.175817 21.2053L2.09886 21.7547ZM1.88729 26.3786C2.09397 27.8253 2.74111 29.0603 3.86128 30.1105L2.4934 31.5695C1.05357 30.2197 0.18071 28.5747 -0.0926099 26.6614L1.88729 26.3786ZM28.0044 30.1329C29.1809 31.3093 30.6703 31.9796 32.534 32.1229L32.3806 34.1171C30.0844 33.9404 28.1338 33.0907 26.5902 31.5471L28.0044 30.1329ZM32.4973 32.1208C34.3165 32.1936 36.1098 31.7957 37.8901 30.9056L38.7846 32.6944C36.7249 33.7243 34.5982 34.2064 32.4174 34.1192L32.4973 32.1208ZM37.8453 30.9294C39.4872 30.0014 40.7495 28.6074 41.6294 26.7009L43.4453 27.5391C42.4052 29.7926 40.8675 31.5186 38.8294 32.6706L37.8453 30.9294ZM41.6182 26.7261C42.9963 23.5106 43.4811 20.3678 43.1047 17.281L45.09 17.0389C45.5136 20.5122 44.9584 24.0094 43.4565 27.5139L41.6182 26.7261ZM43.1044 17.2782C42.7217 14.0637 41.6923 11.2152 40.0253 8.7147L41.6894 7.6053C43.5424 10.3847 44.673 13.5363 45.0903 17.0418L43.1044 17.2782ZM40.0369 8.73179C38.2867 6.22058 36.132 4.33537 33.5701 3.05442L34.4646 1.26557C37.3427 2.70463 39.748 4.81942 41.6777 7.5882L40.0369 8.73179ZM33.56 3.04928C30.9436 1.70369 28.1468 1.21659 25.1414 1.59227L24.8933 -0.392286C28.2879 -0.816609 31.4911 -0.263705 34.4747 1.27071L33.56 3.04928ZM25.9917 0.82485L25.6317 2.38485L23.683 1.93513L24.043 0.375133L25.9917 0.82485ZM25.0085 1.22366C27.1076 2.01083 28.7948 3.29255 30.0366 5.06653L28.3981 6.21345C27.3999 4.78744 26.0471 3.74916 24.3062 3.09632L25.0085 1.22366ZM30.0558 5.095C31.2225 6.89001 31.7108 8.91185 31.5342 11.1197L29.5405 10.9602C29.6839 9.16814 29.2921 7.58998 28.3789 6.18498L30.0558 5.095ZM31.5339 11.123C31.3504 13.3252 30.2567 15.4799 28.4081 17.5806L26.9066 16.2594C28.578 14.3601 29.4043 12.5948 29.5408 10.9569L31.5339 11.123ZM28.4099 17.5785C27.3968 18.7363 26.6652 20.1184 26.2221 21.7431L24.2926 21.2169C24.8095 19.3215 25.6779 17.6637 26.9048 16.2615L28.4099 17.5785ZM26.2189 21.7547C25.7808 23.2879 25.7096 24.8097 25.9997 26.3329L24.035 26.7071C23.6851 24.8702 23.7739 23.0321 24.2958 21.2053L26.2189 21.7547ZM26.0073 26.3786C26.214 27.8253 26.8611 29.0603 27.9813 30.1105L26.6134 31.5695C25.1736 30.2197 24.3007 28.5747 24.0274 26.6614L26.0073 26.3786Z" fill="black"/>
</svg>
