<svg width="45" height="34" viewBox="0 0 45 34" fill="none" xmlns="http://www.w3.org/2000/svg">
<path d="M41.8227 30.84C40.4627 32.2 38.7427 32.96 36.6627 33.12C34.6627 33.2 32.7027 32.76 30.7827 31.8C28.9427 30.76 27.5427 29.2 26.5827 27.12C25.1427 23.76 24.6227 20.44 25.0227 17.16C25.4227 13.8 26.5027 10.8 28.2627 8.16C30.1027 5.52 32.3827 3.52 35.1027 2.16C37.9027 0.719995 40.9027 0.199994 44.1027 0.599994L44.4627 2.16C42.5427 2.88 41.0227 4.03999 39.9027 5.63999C38.8627 7.24 38.4227 9.04 38.5827 11.04C38.7427 12.96 39.7027 14.92 41.4627 16.92C42.5827 18.2 43.3827 19.72 43.8627 21.48C44.3427 23.16 44.4227 24.84 44.1027 26.52C43.8627 28.2 43.1027 29.64 41.8227 30.84ZM17.7027 30.84C16.3427 32.2 14.6227 32.96 12.5427 33.12C10.5427 33.2 8.58266 32.76 6.66266 31.8C4.82266 30.76 3.42266 29.2 2.46266 27.12C1.02266 23.76 0.502656 20.44 0.902656 17.16C1.30266 13.8 2.38266 10.8 4.14266 8.16C5.98266 5.52 8.26266 3.52 10.9827 2.16C13.7827 0.719995 16.7827 0.199994 19.9827 0.599994L20.3427 2.16C18.4227 2.88 16.9027 4.03999 15.7827 5.63999C14.7427 7.24 14.3027 9.04 14.4627 11.04C14.6227 12.96 15.5827 14.92 17.3427 16.92C18.4627 18.2 19.2627 19.72 19.7427 21.48C20.2227 23.16 20.3027 24.84 19.9827 26.52C19.7427 28.2 18.9827 29.64 17.7027 30.84Z" fill="#EDEDED" fill-opacity="0.33"/>
</svg>
